<svg xmlns="http://www.w3.org/2000/svg" viewBox="0 0 880 638" width="880" height="638" role="img" aria-label="Installazione desktop — passaggi — AW Better Player">
<defs><linearGradient id="gTopL" x1="0" y1="0" x2="0" y2="1"><stop offset="0%" stop-color="#000" stop-opacity="0.9"/><stop offset="60%" stop-color="#000" stop-opacity="0.4"/><stop offset="100%" stop-color="#000" stop-opacity="0"/></linearGradient><linearGradient id="gBotL" x1="0" y1="1" x2="0" y2="0"><stop offset="0%" stop-color="#000" stop-opacity="0.9"/><stop offset="60%" stop-color="#000" stop-opacity="0.4"/><stop offset="100%" stop-color="#000" stop-opacity="0"/></linearGradient><filter id="elev3" x="-30%" y="-30%" width="160%" height="160%">
  <feDropShadow dx="0" dy="6" stdDeviation="8" flood-color="#000" flood-opacity="0.34"/>
  <feDropShadow dx="0" dy="18" stdDeviation="20" flood-color="#000" flood-opacity="0.42"/>
</filter></defs>
<rect width="880" height="638" rx="16" fill="#15171c"/>
<g transform="translate(32 32)"><rect x="0" y="0" width="816" height="196" rx="10" fill="#202124" stroke="rgba(255,255,255,0.10)" stroke-width="1"/><rect x="0" y="0" width="816" height="22" rx="10" fill="#292a2d"/><rect x="0" y="12" width="816" height="10" fill="#292a2d"/><rect x="8" y="5" width="165.35" height="17" rx="5" fill="#202124"/><rect x="14" y="11.5" width="7" height="7" rx="1.5" fill="#9aa0a6" opacity="0.8"/><text x="25" y="15" font-family="Roboto, 'Helvetica Neue', Arial, Helvetica, sans-serif" font-size="8.5" font-weight="400" fill="#e8eaed" opacity="0.9" dominant-baseline="central" textLength="139.35" lengthAdjust="spacingAndGlyphs">Tampermonkey - Chrome Web Store</text><rect x="782" y="10.5" width="6" height="1.4" fill="#9aa0a6" opacity="0.8"/><rect x="792" y="10.5" width="6" height="1.4" fill="#9aa0a6" opacity="0.8"/><rect x="802" y="10.5" width="6" height="1.4" fill="#9aa0a6" opacity="0.8"/><rect x="10" y="27" width="796" height="14" rx="9" fill="#35363a"/><text x="24" y="34" font-family="Roboto, 'Helvetica Neue', Arial, Helvetica, sans-serif" font-size="8.5" font-weight="400" fill="#e8eaed" opacity="0.9" dominant-baseline="central" textLength="109.14" lengthAdjust="spacingAndGlyphs">chromewebstore.google.com</text><circle cx="17" cy="34" r="3" fill="#9aa0a6" opacity="0.7"/><text x="16" y="60" font-family="Roboto, 'Helvetica Neue', Arial, Helvetica, sans-serif" font-size="9" font-weight="400" fill="#9aa0a6" dominant-baseline="central" textLength="71.53" lengthAdjust="spacingAndGlyphs">chrome web store</text><rect x="16" y="76" width="36" height="36" rx="8" fill="#111" stroke="rgba(255,255,255,0.16)" stroke-width="1"/><circle cx="28" cy="94" r="5.4" fill="#fff"/><circle cx="40" cy="94" r="5.4" fill="#fff"/><text x="62" y="87" font-family="Roboto, 'Helvetica Neue', Arial, Helvetica, sans-serif" font-size="15" font-weight="600" fill="#e8eaed" dominant-baseline="central" textLength="110.87" lengthAdjust="spacingAndGlyphs">Tampermonkey</text><text x="62" y="104" font-family="Roboto, 'Helvetica Neue', Arial, Helvetica, sans-serif" font-size="8.5" font-weight="400" fill="#9aa0a6" dominant-baseline="central" textLength="93.33" lengthAdjust="spacingAndGlyphs">4,7 ★   12.000.000 utenti</text><rect x="16" y="132" width="62.99" height="24" rx="12" fill="#8ab4f8"/><text x="47.5" y="144" font-family="Roboto, 'Helvetica Neue', Arial, Helvetica, sans-serif" font-size="9" font-weight="600" fill="#202124" text-anchor="middle" dominant-baseline="central" textLength="38.99" lengthAdjust="spacingAndGlyphs">Aggiungi</text><rect x="13" y="129" width="68.99" height="30" rx="14" fill="none" stroke="#c62828" stroke-width="1.6"/><rect x="408" y="48" width="396" height="118" rx="14" fill="#000" opacity="0.35"/><rect x="414" y="54" width="384" height="99" rx="10" fill="#2a2b2e" stroke="rgba(255,255,255,0.16)" stroke-width="1"/><text x="426" y="70" font-family="Roboto, 'Helvetica Neue', Arial, Helvetica, sans-serif" font-size="11" font-weight="600" fill="#e8eaed" dominant-baseline="central" textLength="232.9" lengthAdjust="spacingAndGlyphs">«Tampermonkey»: aggiungere l’estensione?</text><text x="426" y="88" font-family="Roboto, 'Helvetica Neue', Arial, Helvetica, sans-serif" font-size="9" font-weight="400" fill="#9aa0a6" dominant-baseline="central" textLength="18.51" lengthAdjust="spacingAndGlyphs">Può:</text><text x="426" y="101" font-family="Roboto, 'Helvetica Neue', Arial, Helvetica, sans-serif" font-size="9" font-weight="400" fill="#9aa0a6" dominant-baseline="central" textLength="206.1" lengthAdjust="spacingAndGlyphs">Leggere e modificare tutti i tuoi dati su tutti i siti web</text><text x="426" y="114" font-family="Roboto, 'Helvetica Neue', Arial, Helvetica, sans-serif" font-size="9" font-weight="400" fill="#9aa0a6" dominant-baseline="central" textLength="71.53" lengthAdjust="spacingAndGlyphs">Mostrare notifiche</text><g transform="translate(679.49 127)"><rect x="0" y="0" width="108.51" height="20" rx="10" fill="#8ab4f8"/><text x="54.26" y="10" font-family="Roboto, 'Helvetica Neue', Arial, Helvetica, sans-serif" font-size="9" font-weight="600" fill="#202124" text-anchor="middle" dominant-baseline="central" textLength="88.51" lengthAdjust="spacingAndGlyphs">Aggiungi estensione</text></g><g transform="translate(620.49 127)"><rect x="0" y="0" width="53" height="20" rx="10" fill="transparent"/><text x="26.5" y="10" font-family="Roboto, 'Helvetica Neue', Arial, Helvetica, sans-serif" font-size="9" font-weight="600" fill="#8ab4f8" text-anchor="middle" dominant-baseline="central" textLength="33" lengthAdjust="spacingAndGlyphs">Annulla</text></g><rect x="676.49" y="124" width="114.51" height="26" rx="12" fill="none" stroke="#c62828" stroke-width="1.6"/><rect x="0" y="212" width="816" height="250" rx="10" fill="#202124" stroke="rgba(255,255,255,0.10)" stroke-width="1"/><rect x="0" y="212" width="816" height="40" rx="10" fill="#292a2d"/><rect x="0" y="242" width="816" height="10" fill="#292a2d"/><rect x="0" y="252" width="816" height="1" fill="rgba(255,255,255,0.10)"/><rect x="16" y="219" width="650" height="26" rx="13" fill="#35363a"/><circle cx="32" cy="232" r="4.5" fill="#9aa0a6" opacity="0.8"/><text x="46" y="232" font-family="Roboto, 'Helvetica Neue', Arial, Helvetica, sans-serif" font-size="9.5" font-weight="400" fill="#e8eaed" opacity="0.9" dominant-baseline="central" textLength="121.98" lengthAdjust="spacingAndGlyphs">chromewebstore.google.com</text><circle cx="688" cy="232" r="9" fill="#9aa0a6" opacity="0.3"/><path transform="translate(719 221) scale(0.9167)" fill="#e8eaed" d="M10 3a2 2 0 0 1 4 0v1h4a1 1 0 0 1 1 1v4h-1a2 2 0 0 0 0 4h1v4a1 1 0 0 1-1 1h-4v-1a2 2 0 0 0-4 0v1H5a1 1 0 0 1-1-1v-4h1a2 2 0 0 0 0-4H4V5a1 1 0 0 1 1-1h5V3z"/><rect x="713" y="216" width="34" height="32" rx="10" fill="none" stroke="#c62828" stroke-width="1.6"/><circle cx="772" cy="232" r="9" fill="#9aa0a6" opacity="0.3"/><rect x="508" y="262" width="300" height="92" rx="10" fill="#2a2b2e" stroke="rgba(255,255,255,0.16)" stroke-width="1"/><text x="522" y="282" font-family="Roboto, 'Helvetica Neue', Arial, Helvetica, sans-serif" font-size="11.5" font-weight="600" fill="#e8eaed" dominant-baseline="central" textLength="58.15" lengthAdjust="spacingAndGlyphs">Estensioni</text><rect x="520" y="296" width="276" height="1" fill="rgba(255,255,255,0.10)"/><rect x="520" y="308" width="276" height="32" rx="6" fill="#35363a" opacity="0.5"/><rect x="532" y="317" width="14" height="14" rx="4" fill="#35363a"/><text x="554" y="324" font-family="Roboto, 'Helvetica Neue', Arial, Helvetica, sans-serif" font-size="10" font-weight="400" fill="#e8eaed" dominant-baseline="central" textLength="69.47" lengthAdjust="spacingAndGlyphs">Tampermonkey</text><circle cx="778" cy="319" r="1.3" fill="#e8eaed"/><circle cx="778" cy="323" r="1.3" fill="#e8eaed"/><circle cx="778" cy="327" r="1.3" fill="#e8eaed"/><rect x="767" y="311" width="22" height="25" rx="6" fill="none" stroke="#c62828" stroke-width="1.6"/><rect x="456" y="348" width="236" height="104" rx="6" fill="#2a2b2e" stroke="rgba(255,255,255,0.16)" stroke-width="1"/><text x="468" y="364" font-family="Roboto, 'Helvetica Neue', Arial, Helvetica, sans-serif" font-size="10" font-weight="400" fill="#9aa0a6" dominant-baseline="central" textLength="33.91" lengthAdjust="spacingAndGlyphs">Opzioni</text><text x="468" y="388" font-family="Roboto, 'Helvetica Neue', Arial, Helvetica, sans-serif" font-size="10" font-weight="400" fill="#9aa0a6" dominant-baseline="central" textLength="88.36" lengthAdjust="spacingAndGlyphs">Rimuovi da Chrome</text><rect x="460" y="400" width="228" height="24" rx="4" fill="#1565c0" opacity="0.22"/><text x="468" y="412" font-family="Roboto, 'Helvetica Neue', Arial, Helvetica, sans-serif" font-size="10" font-weight="400" fill="#e8eaed" dominant-baseline="central" textLength="86.71" lengthAdjust="spacingAndGlyphs">Gestisci estensione</text><text x="468" y="436" font-family="Roboto, 'Helvetica Neue', Arial, Helvetica, sans-serif" font-size="10" font-weight="400" fill="#9aa0a6" dominant-baseline="central" textLength="130.06" lengthAdjust="spacingAndGlyphs">Visualizza autorizzazioni web</text><rect x="457" y="397" width="234" height="30" rx="6" fill="none" stroke="#c62828" stroke-width="1.6"/><rect x="0" y="478" width="816" height="96" rx="10" fill="#202124" stroke="rgba(255,255,255,0.10)" stroke-width="1"/><text x="18" y="500" font-family="Roboto, 'Helvetica Neue', Arial, Helvetica, sans-serif" font-size="11.5" font-weight="600" fill="#e8eaed" dominant-baseline="central" textLength="83.73" lengthAdjust="spacingAndGlyphs">Accesso al sito</text><text x="18" y="516" font-family="Roboto, 'Helvetica Neue', Arial, Helvetica, sans-serif" font-size="9" font-weight="400" fill="#9aa0a6" dominant-baseline="central" textLength="213.59" lengthAdjust="spacingAndGlyphs">Permetti di leggere e modificare i dati dei siti che visiti</text><rect x="690" y="496" width="108" height="22" rx="4" fill="#35363a" stroke="rgba(255,255,255,0.16)" stroke-width="1"/><text x="700" y="507" font-family="Roboto, 'Helvetica Neue', Arial, Helvetica, sans-serif" font-size="9" font-weight="400" fill="#e8eaed" dominant-baseline="central" textLength="46.02" lengthAdjust="spacingAndGlyphs">Su tutti i siti</text><text x="786" y="507" font-family="Roboto, 'Helvetica Neue', Arial, Helvetica, sans-serif" font-size="8" font-weight="400" fill="#9aa0a6" dominant-baseline="central" textLength="6" lengthAdjust="spacingAndGlyphs">▾</text><rect x="12" y="530" width="792" height="1" fill="rgba(255,255,255,0.10)"/><text x="18" y="548" font-family="Roboto, 'Helvetica Neue', Arial, Helvetica, sans-serif" font-size="11.5" font-weight="600" fill="#e8eaed" dominant-baseline="central" textLength="121.4" lengthAdjust="spacingAndGlyphs">Consenti script utente</text><text x="18" y="563" font-family="Roboto, 'Helvetica Neue', Arial, Helvetica, sans-serif" font-size="9" font-weight="400" fill="#9aa0a6" dominant-baseline="central" textLength="238.65" lengthAdjust="spacingAndGlyphs">L’estensione potrà eseguire codici non esaminati da Google</text><rect x="764" y="540" width="32" height="17" rx="8.5" fill="#8ab4f8"/><circle cx="787.5" cy="548.5" r="6.5" fill="#fff"/><rect x="7" y="531" width="802" height="42" rx="8" fill="none" stroke="#c62828" stroke-width="1.6"/></g>
<circle cx="125.99" cy="176" r="11.1" fill="rgba(0,0,0,0.55)"/><circle cx="125.99" cy="176" r="9.5" fill="#c62828"/><text x="125.99" y="176.4" font-family="Roboto, 'Helvetica Neue', Arial, Helvetica, sans-serif" font-size="10.5" font-weight="700" fill="#ffffff" text-anchor="middle" dominant-baseline="central" textLength="5.84" lengthAdjust="spacingAndGlyphs">1</text>
<circle cx="842" cy="169" r="11.1" fill="rgba(0,0,0,0.55)"/><circle cx="842" cy="169" r="9.5" fill="#c62828"/><text x="842" y="169.4" font-family="Roboto, 'Helvetica Neue', Arial, Helvetica, sans-serif" font-size="10.5" font-weight="700" fill="#ffffff" text-anchor="middle" dominant-baseline="central" textLength="5.84" lengthAdjust="spacingAndGlyphs">2</text>
<circle cx="732" cy="264" r="11.1" fill="rgba(0,0,0,0.55)"/><circle cx="732" cy="264" r="9.5" fill="#c62828"/><text x="732" y="264.4" font-family="Roboto, 'Helvetica Neue', Arial, Helvetica, sans-serif" font-size="10.5" font-weight="700" fill="#ffffff" text-anchor="middle" dominant-baseline="central" textLength="5.84" lengthAdjust="spacingAndGlyphs">3</text>
<circle cx="784" cy="355" r="11.1" fill="rgba(0,0,0,0.55)"/><circle cx="784" cy="355" r="9.5" fill="#c62828"/><text x="784" y="355.4" font-family="Roboto, 'Helvetica Neue', Arial, Helvetica, sans-serif" font-size="10.5" font-weight="700" fill="#ffffff" text-anchor="middle" dominant-baseline="central" textLength="5.84" lengthAdjust="spacingAndGlyphs">4</text>
<circle cx="474" cy="444" r="11.1" fill="rgba(0,0,0,0.55)"/><circle cx="474" cy="444" r="9.5" fill="#c62828"/><text x="474" y="444.4" font-family="Roboto, 'Helvetica Neue', Arial, Helvetica, sans-serif" font-size="10.5" font-weight="700" fill="#ffffff" text-anchor="middle" dominant-baseline="central" textLength="5.84" lengthAdjust="spacingAndGlyphs">5</text>
<circle cx="30" cy="584" r="11.1" fill="rgba(0,0,0,0.55)"/><circle cx="30" cy="584" r="9.5" fill="#c62828"/><text x="30" y="584.4" font-family="Roboto, 'Helvetica Neue', Arial, Helvetica, sans-serif" font-size="10.5" font-weight="700" fill="#ffffff" text-anchor="middle" dominant-baseline="central" textLength="5.84" lengthAdjust="spacingAndGlyphs">6</text>
</svg>
