<svg xmlns="http://www.w3.org/2000/svg" viewBox="0 0 880 315" width="880" height="315" role="img" aria-label="Watchlist AW — AW Better Player">
<defs><linearGradient id="gTopL" x1="0" y1="0" x2="0" y2="1"><stop offset="0%" stop-color="#000" stop-opacity="0.9"/><stop offset="60%" stop-color="#000" stop-opacity="0.4"/><stop offset="100%" stop-color="#000" stop-opacity="0"/></linearGradient><linearGradient id="gBotL" x1="0" y1="1" x2="0" y2="0"><stop offset="0%" stop-color="#000" stop-opacity="0.9"/><stop offset="60%" stop-color="#000" stop-opacity="0.4"/><stop offset="100%" stop-color="#000" stop-opacity="0"/></linearGradient><filter id="elev3" x="-30%" y="-30%" width="160%" height="160%">
  <feDropShadow dx="0" dy="6" stdDeviation="8" flood-color="#000" flood-opacity="0.34"/>
  <feDropShadow dx="0" dy="18" stdDeviation="20" flood-color="#000" flood-opacity="0.42"/>
</filter></defs>
<rect width="880" height="315" rx="16" fill="#15171c"/>
<circle cx="43" cy="38" r="11" fill="#c62828"/><text x="43" y="38.4" font-family="Roboto, 'Helvetica Neue', Arial, Helvetica, sans-serif" font-size="10.5" font-weight="700" fill="#ffffff" text-anchor="middle" dominant-baseline="central" textLength="5.84" lengthAdjust="spacingAndGlyphs">J</text>
<text x="64" y="38" font-family="Roboto, 'Helvetica Neue', Arial, Helvetica, sans-serif" font-size="21" font-weight="600" fill="#84aede" dominant-baseline="central" textLength="134.16" lengthAdjust="spacingAndGlyphs">Watchlist AW</text>
<rect x="818" y="28.5" width="30" height="19" rx="5" fill="#c62828"/><text x="833" y="38.4" font-family="Roboto, 'Helvetica Neue', Arial, Helvetica, sans-serif" font-size="10.5" font-weight="700" fill="#ffffff" text-anchor="middle" dominant-baseline="central" textLength="9.92" lengthAdjust="spacingAndGlyphs">IV</text>
<rect x="32" y="56" width="816" height="1" fill="rgba(21,101,192,0.22)"/>
<text x="32" y="79.5" font-family="Roboto, 'Helvetica Neue', Arial, Helvetica, sans-serif" font-size="13.5" font-weight="400" fill="#98a1ae" dominant-baseline="central" textLength="759.44" lengthAdjust="spacingAndGlyphs">Il pannello che integra la Watchlist al player, permettendo di aggiornare i dati della serie tramite popup e/o funzioni automatiche</text>
<text x="32" y="98.5" font-family="Roboto, 'Helvetica Neue', Arial, Helvetica, sans-serif" font-size="13.5" font-weight="400" fill="#98a1ae" dominant-baseline="central" textLength="204.08" lengthAdjust="spacingAndGlyphs">(Account AnimeWorld necessario)</text>
<defs><clipPath id="clwl"><rect x="32" y="132" width="816" height="145.08" rx="10"/></clipPath></defs><g clip-path="url(#clwl)"><g transform="translate(32 132) scale(1.16905) translate(13.7 -560.5)"><rect x="-39.7" y="534.5" width="750" height="176.1" fill="#222222"/><rect x="0.3" y="574.5" width="670" height="96.1" rx="8" fill="#1f2b30" stroke="#304c5f" stroke-width="0.727273"/>
<g transform="translate(14 585.5) scale(0.66667)"><path fill="none" stroke="#84aede" stroke-linecap="round" stroke-linejoin="round" stroke-width="2" d="M17 3a2 2 0 0 1 2 2v15a1 1 0 0 1-1.496.868l-4.512-2.578a2 2 0 0 0-1.984 0l-4.512 2.578A1 1 0 0 1 5 20V5a2 2 0 0 1 2-2z"/></g>
<text x="38" y="593.50" font-family="'Segoe UI', Roboto, 'Helvetica Neue', Arial, sans-serif" font-size="13" font-weight="600" fill="#84aede" dominant-baseline="central" textLength="78.6" lengthAdjust="spacingAndGlyphs">Watchlist AW</text>
<rect x="126.6" y="584.2" width="68.8" height="18.6" rx="9.3" fill="#1565c0"/>
<circle cx="138.6" cy="593.5" r="3" fill="#ffffff"/>
<text x="146.6" y="593.50" font-family="'Segoe UI', Roboto, 'Helvetica Neue', Arial, sans-serif" font-size="11" font-weight="600" fill="#ffffff" dominant-baseline="central" textLength="39.8" lengthAdjust="spacingAndGlyphs">In corso</text>
<rect x="14" y="610.9" width="120" height="24" rx="6" fill="#222e2f" stroke="#1565c0" stroke-width="1"/>
<g transform="translate(22.7 616.4) scale(0.54167)"><g fill="none" stroke="#becfd4" stroke-linecap="round" stroke-linejoin="round" stroke-width="2"><path d="M2.062 12.348a1 1 0 0 1 0-.696a10.75 10.75 0 0 1 19.876 0a1 1 0 0 1 0 .696a10.75 10.75 0 0 1-19.876 0"/><circle cx="12" cy="12" r="3"/></g></g>
<text x="41.7" y="622.90" font-family="'Segoe UI', Roboto, 'Helvetica Neue', Arial, sans-serif" font-size="12" font-weight="600" fill="#becfd4" dominant-baseline="central" textLength="43.5" lengthAdjust="spacingAndGlyphs">In corso</text>
<text x="117.3" y="622.90" font-family="'Segoe UI', Roboto, 'Helvetica Neue', Arial, sans-serif" font-size="9" font-weight="600" fill="#becfd4" opacity="0.7" dominant-baseline="central">▾</text>
<g transform="translate(140 611.9) scale(0.91667)"><path fill="none" stroke="#71959e" stroke-linecap="round" stroke-linejoin="round" stroke-width="2" d="M10 11v6m4-6v6m5-11v14a2 2 0 0 1-2 2H7a2 2 0 0 1-2-2V6M3 6h18M8 6V4a2 2 0 0 1 2-2h4a2 2 0 0 1 2 2v2"/></g>
<rect x="173.9" y="611.9" width="1" height="22" fill="#304b5c"/>
<text x="186.9" y="622.90" font-family="'Segoe UI', Roboto, 'Helvetica Neue', Arial, sans-serif" font-size="11.5" font-weight="600" fill="#71959e" dominant-baseline="central" textLength="37.6" lengthAdjust="spacingAndGlyphs">Episodi</text>
<rect x="230.5" y="611.9" width="22" height="22" rx="5" fill="#1565c0"/>
<text x="241.5" y="622.90" font-family="'Segoe UI', Roboto, 'Helvetica Neue', Arial, sans-serif" font-size="15" font-weight="700" fill="#ffffff" text-anchor="middle" dominant-baseline="central">−</text>
<rect x="344.5" y="611.9" width="22" height="22" rx="5" fill="#1565c0"/>
<text x="355.5" y="622.90" font-family="'Segoe UI', Roboto, 'Helvetica Neue', Arial, sans-serif" font-size="15" font-weight="700" fill="#ffffff" text-anchor="middle" dominant-baseline="central">+</text>
<text x="298.5" y="622.90" font-family="'Segoe UI', Roboto, 'Helvetica Neue', Arial, sans-serif" font-size="12" font-weight="600" fill="#84aede" text-anchor="middle" dominant-baseline="central" textLength="29.5" lengthAdjust="spacingAndGlyphs">7 / 12</text>
<rect x="378.5" y="611.9" width="1" height="22" fill="#304b5c"/>
<text x="391.4" y="622.90" font-family="'Segoe UI', Roboto, 'Helvetica Neue', Arial, sans-serif" font-size="11.5" font-weight="600" fill="#71959e" dominant-baseline="central" textLength="24.5" lengthAdjust="spacingAndGlyphs">Voto</text>
<rect x="421.9" y="611.9" width="22" height="22" rx="5" fill="#1565c0"/>
<text x="432.9" y="622.90" font-family="'Segoe UI', Roboto, 'Helvetica Neue', Arial, sans-serif" font-size="15" font-weight="700" fill="#ffffff" text-anchor="middle" dominant-baseline="central">−</text>
<rect x="479.9" y="611.9" width="22" height="22" rx="5" fill="#1565c0"/>
<text x="490.9" y="622.90" font-family="'Segoe UI', Roboto, 'Helvetica Neue', Arial, sans-serif" font-size="15" font-weight="700" fill="#ffffff" text-anchor="middle" dominant-baseline="central">+</text>
<text x="461.9" y="622.90" font-family="'Segoe UI', Roboto, 'Helvetica Neue', Arial, sans-serif" font-size="12" font-weight="600" fill="#84aede" text-anchor="middle" dominant-baseline="central" textLength="6.7" lengthAdjust="spacingAndGlyphs">8</text>
<rect x="513.8" y="611.9" width="1" height="22" fill="#304b5c"/>
<text x="526.7" y="622.90" font-family="'Segoe UI', Roboto, 'Helvetica Neue', Arial, sans-serif" font-size="11.5" font-weight="600" fill="#71959e" dominant-baseline="central" textLength="43.8" lengthAdjust="spacingAndGlyphs">Rewatch</text>
<rect x="576.5" y="611.9" width="22" height="22" rx="5" fill="#1565c0" opacity="0.35"/>
<text x="587.5" y="622.90" font-family="'Segoe UI', Roboto, 'Helvetica Neue', Arial, sans-serif" font-size="15" font-weight="700" fill="#ffffff" opacity="0.35" text-anchor="middle" dominant-baseline="central">−</text>
<rect x="634.5" y="611.9" width="22" height="22" rx="5" fill="#1565c0" opacity="0.35"/>
<text x="645.5" y="622.90" font-family="'Segoe UI', Roboto, 'Helvetica Neue', Arial, sans-serif" font-size="15" font-weight="700" fill="#ffffff" opacity="0.35" text-anchor="middle" dominant-baseline="central">+</text>
<text x="616.5" y="622.90" font-family="'Segoe UI', Roboto, 'Helvetica Neue', Arial, sans-serif" font-size="12" font-weight="600" fill="#84aede" text-anchor="middle" dominant-baseline="central" textLength="6.7" lengthAdjust="spacingAndGlyphs">0</text>
<text x="14" y="652.30" font-family="'Segoe UI', Roboto, 'Helvetica Neue', Arial, sans-serif" font-size="12" font-weight="600" fill="#becfd4" dominant-baseline="central" textLength="119.6" lengthAdjust="spacingAndGlyphs">Integrazione watchlist</text>
<rect x="141.6" y="643.9" width="29" height="17" rx="8.5" fill="#1565c0"/>
<circle cx="162.1" cy="652.4" r="6" fill="#ffffff"/>
<text x="190.6" y="652.30" font-family="'Segoe UI', Roboto, 'Helvetica Neue', Arial, sans-serif" font-size="12" font-weight="600" fill="#becfd4" dominant-baseline="central" textLength="85.5" lengthAdjust="spacingAndGlyphs">Auto-progresso</text>
<rect x="284.1" y="643.9" width="29" height="17" rx="8.5" fill="#1565c0"/>
<circle cx="304.6" cy="652.4" r="6" fill="#ffffff"/>
<text x="333.1" y="652.30" font-family="'Segoe UI', Roboto, 'Helvetica Neue', Arial, sans-serif" font-size="12" font-weight="600" fill="#becfd4" dominant-baseline="central" textLength="88.3" lengthAdjust="spacingAndGlyphs">Ricorda le scelte</text>
<rect x="429.4" y="643.9" width="29" height="17" rx="8.5" fill="#3c463f"/>
<circle cx="437.9" cy="652.4" r="6" fill="#ffffff"/></g></g><rect x="32" y="132" width="816" height="145.08" rx="10" fill="none" stroke="rgba(21,101,192,0.22)" stroke-width="1"/>
</svg>
